<svg width="28" height="28" viewBox="0 0 28 28" fill="none" xmlns="http://www.w3.org/2000/svg">
<path d="M17.5 19.8333V21C17.5 22.933 15.933 24.5 14 24.5C12.067 24.5 10.5 22.933 10.5 21V19.8333M17.5 19.8333H10.5M17.5 19.8333H21.6889C22.1352 19.8333 22.3594 19.8333 22.5401 19.7724C22.8852 19.6559 23.1553 19.3849 23.2718 19.0397C23.333 18.8583 23.333 18.6334 23.333 18.1836C23.333 17.9868 23.3327 17.8884 23.3173 17.7945C23.2882 17.6172 23.2194 17.4491 23.1146 17.3031C23.0592 17.226 22.9888 17.1556 22.8501 17.0168L22.3956 16.5623C22.249 16.4157 22.1666 16.2168 22.1666 16.0095V11.6667C22.1666 7.15633 18.5103 3.49999 14 3.5C9.48964 3.50001 5.83329 7.15635 5.83329 11.6667V16.0095C5.83329 16.2169 5.75074 16.4157 5.60412 16.5623L5.1497 17.0168C5.01051 17.1559 4.94084 17.2259 4.88538 17.3031C4.78056 17.4491 4.71113 17.6172 4.68203 17.7945C4.66663 17.8884 4.66663 17.9868 4.66663 18.1836C4.66663 18.6334 4.66663 18.8583 4.72782 19.0397C4.84425 19.3849 5.11556 19.6559 5.46073 19.7724C5.64145 19.8333 5.86481 19.8333 6.31111 19.8333H10.5" stroke="black" stroke-width="2.33333" stroke-linecap="round" stroke-linejoin="round"/>
</svg>
