<svg width="36" height="36" viewBox="0 0 36 36" fill="none" xmlns="http://www.w3.org/2000/svg">
<path d="M21 18V23.1C21 23.9401 21 24.3598 21.1635 24.6807C21.3073 24.9629 21.5366 25.1929 21.8188 25.3367C22.1394 25.5 22.5592 25.5 23.3977 25.5H26.1023C26.9408 25.5 27.36 25.5 27.6805 25.3367C27.9628 25.1929 28.1929 24.9628 28.3367 24.6805C28.5 24.36 28.5 23.9408 28.5 23.1023V20.3977C28.5 19.5592 28.5 19.1394 28.3367 18.8188C28.1929 18.5366 27.9629 18.3073 27.6807 18.1635C27.3598 18 26.9401 18 26.1 18H21ZM21 18V15C21 12.5147 23.0147 10.5 25.5 10.5M7.5 18V23.1C7.5 23.9401 7.5 24.3598 7.66349 24.6807C7.8073 24.9629 8.0366 25.1929 8.31885 25.3367C8.6394 25.5 9.05924 25.5 9.89768 25.5H12.6023C13.4408 25.5 13.86 25.5 14.1805 25.3367C14.4628 25.1929 14.6929 24.9628 14.8367 24.6805C15 24.36 15 23.9408 15 23.1023V20.3977C15 19.5593 15 19.1394 14.8367 18.8188C14.6929 18.5366 14.4629 18.3073 14.1807 18.1635C13.8598 18 13.4401 18 12.6 18H7.5ZM7.5 18V15C7.5 12.5147 9.51472 10.5 12 10.5" stroke="black" stroke-width="3" stroke-linecap="round" stroke-linejoin="round"/>
</svg>
