<svg width="24" height="24" viewBox="0 0 24 24" fill="none" xmlns="http://www.w3.org/2000/svg">
<path d="M10.6281 13.1601L15.4742 8.31397M20.4316 5.35645L16.341 18.651C15.9744 19.8425 15.7909 20.4385 15.4748 20.636C15.2005 20.8074 14.8609 20.836 14.5623 20.7121C14.2178 20.5692 13.9383 20.0111 13.3806 18.8958L10.7897 13.7139C10.7012 13.5369 10.6569 13.4488 10.5978 13.3721C10.5453 13.304 10.4848 13.2427 10.4168 13.1903C10.3418 13.1325 10.2552 13.0892 10.0861 13.0046L4.89224 10.4077C3.77693 9.85006 3.21923 9.57098 3.07632 9.22656C2.95238 8.92787 2.98064 8.588 3.152 8.31375C3.34959 7.99751 3.94555 7.8138 5.13735 7.44709L18.4319 3.35645C19.3689 3.06815 19.8376 2.92412 20.154 3.0403C20.4297 3.1415 20.647 3.35861 20.7482 3.63428C20.8644 3.9506 20.7202 4.41904 20.4322 5.35506L20.4316 5.35645Z" stroke="white" stroke-width="2" stroke-linecap="round" stroke-linejoin="round"/>
</svg>
